<svg width="48" height="43" viewBox="0 0 48 43" fill="none" xmlns="http://www.w3.org/2000/svg">
<path d="M15.9243 41.0736C13.4034 41.0736 11.06 40.612 8.89419 39.6888C6.76384 38.7657 4.91755 37.4875 3.35529 35.8542C1.82855 34.1854 0.710115 32.2504 0 30.049L6.01822 27.4394C6.97688 29.7117 8.3616 31.5048 10.1724 32.8185C11.9832 34.0967 14.0248 34.7358 16.2971 34.7358C17.5753 34.7358 18.676 34.5405 19.5992 34.1499C20.5578 33.7239 21.2857 33.1558 21.7828 32.4457C22.3154 31.7355 22.5817 30.8834 22.5817 29.8892C22.5817 28.7176 22.2266 27.7589 21.5165 27.0133C20.8419 26.2322 19.8122 25.6286 18.4275 25.2025L10.8115 22.7526C7.7225 21.7939 5.39687 20.356 3.83462 18.4386C2.27237 16.5213 1.49124 14.2667 1.49124 11.6748C1.49124 9.40243 2.04158 7.39635 3.14226 5.65657C4.27844 3.91679 5.84069 2.56757 7.82902 1.60892C9.85284 0.614756 12.1607 0.117676 14.7526 0.117676C17.1315 0.117676 19.3151 0.543745 21.3034 1.39588C23.2918 2.21251 24.996 3.36645 26.4163 4.85769C27.872 6.31343 28.9549 8.03546 29.6651 10.0238L23.7001 12.6867C22.919 10.6984 21.7473 9.17164 20.185 8.10647C18.6228 7.00579 16.812 6.45545 14.7526 6.45545C13.5454 6.45545 12.4803 6.66849 11.5571 7.09455C10.634 7.48512 9.9061 8.05321 9.37352 8.79883C8.87644 9.50895 8.6279 10.3611 8.6279 11.3552C8.6279 12.4559 8.98295 13.4323 9.69307 14.2845C10.4032 15.1011 11.4861 15.7402 12.9418 16.2018L20.2383 18.4919C23.3983 19.5216 21.9833 21.8364 23.5456 23.6472C25.1433 25.458 23.1142 26.2224 23.1142 28.8853C23.1142 31.1577 28.1252 33.9614 26.9535 35.7012C25.7818 37.441 25.1736 38.5882 23.1142 39.5823C21.0549 40.5765 18.6583 41.0736 15.9243 41.0736Z" fill="#F27E17"/>
<path d="M15.9243 41.0736C13.4034 41.0736 11.06 40.612 8.89419 39.6888C6.76384 38.7657 4.91755 37.4875 3.35529 35.8542C1.82855 34.1854 0.710115 32.2504 0 30.049L6.01822 27.4394C6.97688 29.7117 8.3616 31.5048 10.1724 32.8185C11.9832 34.0967 14.0248 34.7358 16.2971 34.7358C17.5753 34.7358 18.676 34.5405 19.5992 34.1499C20.5578 33.7239 21.2857 33.1558 21.7828 32.4457C22.3154 31.7355 22.5817 30.8834 22.5817 29.8892C22.5817 28.7176 22.2266 27.7589 21.5165 27.0133C20.8419 26.2322 19.8122 25.6286 18.4275 25.2025L10.8115 22.7526C7.7225 21.7939 5.39687 20.356 3.83462 18.4386C2.27237 16.5213 1.49124 14.2667 1.49124 11.6748C1.49124 9.40243 2.04158 7.39635 3.14226 5.65657C4.27844 3.91679 5.84069 2.56757 7.82902 1.60892C9.85284 0.614756 12.1607 0.117676 14.7526 0.117676C17.1315 0.117676 19.3151 0.543745 21.3034 1.39588C23.2918 2.21251 24.996 3.36645 26.4163 4.85769C27.872 6.31343 28.9549 8.03546 29.6651 10.0238L23.7001 12.6867C22.919 10.6984 21.7473 9.17164 20.185 8.10647C18.6228 7.00579 16.812 6.45545 14.7526 6.45545C13.5454 6.45545 12.4803 6.66849 11.5571 7.09455C10.634 7.48512 9.9061 8.05321 9.37352 8.79883C8.87644 9.50895 8.6279 10.3611 8.6279 11.3552C8.6279 12.4559 8.98295 13.4323 9.69307 14.2845C10.4032 15.1011 11.4861 15.7402 12.9418 16.2018L20.2383 18.4919C23.3983 19.5216 21.9833 21.8364 23.5456 23.6472C25.1433 25.458 23.1142 26.2224 23.1142 28.8853C23.1142 31.1577 28.1252 33.9614 26.9535 35.7012C25.7818 37.441 25.1736 38.5882 23.1142 39.5823C21.0549 40.5765 18.6583 41.0736 15.9243 41.0736Z" fill="url(#paint0_linear_97_2709)"/>
<path d="M41.1635 33.4788H33.623C33.623 33.4788 34.2784 32.9045 35.2766 32.4724C35.8795 32.2111 36.6076 32.0015 37.3929 32.0015C38.1789 32.0015 38.907 32.2111 39.5099 32.4724C40.5082 32.9045 41.1635 33.4788 41.1635 33.4788Z" fill="url(#paint1_linear_97_2709)"/>
<path d="M39.5106 32.4724C38.9077 32.6738 38.1796 32.8357 37.3936 32.8357C36.6091 32.8357 35.8809 32.6738 35.2773 32.4724C35.8803 32.2111 36.6084 32.0015 37.3936 32.0015C38.1789 32.0015 38.9077 32.2111 39.5106 32.4724Z" fill="url(#paint2_linear_97_2709)"/>
<path d="M32.7154 42.8822C29.875 42.8822 27.2831 42.186 24.9397 40.7937C22.6318 39.4015 20.7855 37.5012 19.4008 35.093C18.0516 32.6847 17.377 29.9378 17.377 26.8522C17.377 23.7666 18.0516 21.0197 19.4008 18.6115C20.7855 16.2032 22.6318 14.3029 24.9397 12.9107C27.2475 11.5184 29.8395 10.8223 32.7154 10.8223C35.5559 10.8223 38.1301 11.5184 40.4379 12.9107C42.7458 14.3029 44.5744 16.2032 45.9236 18.6115C47.3083 20.9821 48.0007 23.729 48.0007 26.8522C48.0007 29.9378 47.3083 32.6847 45.9236 35.093C44.5388 37.5012 42.6925 39.4015 40.3847 40.7937C38.0768 42.186 35.5204 42.8822 32.7154 42.8822ZM32.7154 36.1089C34.2777 36.1089 35.6447 35.7138 36.8163 34.9236C38.0235 34.1334 38.9644 33.0422 39.6391 31.6499C40.3492 30.22 40.7042 28.6208 40.7042 26.8522C40.7042 25.046 40.3492 23.4656 39.6391 22.111C38.9644 20.7187 38.0235 19.6274 36.8163 18.8372C35.6447 18.0094 34.2777 17.5955 32.7154 17.5955C31.1177 17.5955 29.7152 18.0094 28.508 18.8372C27.3008 19.6274 26.3422 20.7187 25.632 22.111C24.9574 23.4656 24.6201 25.046 24.6201 26.8522C24.6201 28.6208 24.9574 30.22 25.632 31.6499C26.3422 33.0422 27.3008 34.1334 28.508 34.9236C29.7152 35.7138 31.1177 36.1089 32.7154 36.1089Z" fill="#F27E17"/>
<path d="M32.7154 42.8822C29.875 42.8822 27.2831 42.186 24.9397 40.7937C22.6318 39.4015 20.7855 37.5012 19.4008 35.093C18.0516 32.6847 17.377 29.9378 17.377 26.8522C17.377 23.7666 18.0516 21.0197 19.4008 18.6115C20.7855 16.2032 22.6318 14.3029 24.9397 12.9107C27.2475 11.5184 29.8395 10.8223 32.7154 10.8223C35.5559 10.8223 38.1301 11.5184 40.4379 12.9107C42.7458 14.3029 44.5744 16.2032 45.9236 18.6115C47.3083 20.9821 48.0007 23.729 48.0007 26.8522C48.0007 29.9378 47.3083 32.6847 45.9236 35.093C44.5388 37.5012 42.6925 39.4015 40.3847 40.7937C38.0768 42.186 35.5204 42.8822 32.7154 42.8822ZM32.7154 36.1089C34.2777 36.1089 35.6447 35.7138 36.8163 34.9236C38.0235 34.1334 38.9644 33.0422 39.6391 31.6499C40.3492 30.22 40.7042 28.6208 40.7042 26.8522C40.7042 25.046 40.3492 23.4656 39.6391 22.111C38.9644 20.7187 38.0235 19.6274 36.8163 18.8372C35.6447 18.0094 34.2777 17.5955 32.7154 17.5955C31.1177 17.5955 29.7152 18.0094 28.508 18.8372C27.3008 19.6274 26.3422 20.7187 25.632 22.111C24.9574 23.4656 24.6201 25.046 24.6201 26.8522C24.6201 28.6208 24.9574 30.22 25.632 31.6499C26.3422 33.0422 27.3008 34.1334 28.508 34.9236C29.7152 35.7138 31.1177 36.1089 32.7154 36.1089Z" fill="url(#paint3_linear_97_2709)"/>
<path d="M38.0602 41.7151C38.0602 41.7151 38.0575 41.7151 38.0482 41.7177C36.5027 42.2161 34.8589 42.4885 33.1433 42.4885C26.7114 42.4885 21.1672 38.6852 18.6383 33.2034C18.5904 33.1011 18.5439 32.9948 18.4961 32.8885C28.4894 31.5091 29.4303 39.7855 36.0057 41.4121C36.7273 41.5875 37.4104 41.6845 38.0602 41.7151Z" fill="white"/>
<path d="M47.7796 27.6853C47.7771 27.7719 47.7707 27.8534 47.7656 27.9374C47.7593 27.9782 47.7542 28.0189 47.7567 28.0508C47.6905 28.9689 47.5428 29.8641 47.3161 30.7338C47.0462 31.7793 46.6667 32.7828 46.1917 33.7302C46.1828 33.748 46.1739 33.7684 46.1624 33.7849C43.8668 38.2363 40.3327 40.1296 35.7319 37.4447C34.335 36.8309 32.7916 35.9408 31.0992 34.6865C25.4899 30.5186 20.6776 31.4826 18.2556 32.4657C18.2467 32.4453 18.2531 32.4542 18.2441 32.4339C18.2531 32.4275 18.262 32.4249 18.2696 32.4198C18.304 32.402 18.3358 32.3855 18.3715 32.3676C18.6173 32.2428 18.919 32.0951 19.2692 31.9334C19.2807 31.927 19.2922 31.9245 19.3011 31.9219C20.4828 31.3833 22.2019 30.7249 24.0967 30.3862C25.5344 30.1277 27.0778 30.0526 28.5651 30.3544C33.2793 31.3082 42.3536 37.9082 47.5632 28.1093C47.6345 27.9718 47.7071 27.8292 47.7796 27.6853Z" fill="white"/>
<path d="M31.0637 21.9147C31.0637 22.9102 30.2568 23.717 29.2614 23.717C28.2659 23.717 27.459 22.9102 27.459 21.9147C27.459 20.9192 28.2659 20.1123 29.2614 20.1123C30.2568 20.1136 31.0637 20.9204 31.0637 21.9147Z" fill="#F9D10F"/>
<path d="M31.0637 21.9147C31.0637 22.9102 30.2568 23.717 29.2614 23.717C28.2659 23.717 27.459 22.9102 27.459 21.9147C27.459 20.9192 28.2659 20.1123 29.2614 20.1123C30.2568 20.1136 31.0637 20.9204 31.0637 21.9147Z" fill="url(#paint4_linear_97_2709)"/>
<defs>
<linearGradient id="paint0_linear_97_2709" x1="15.2151" y1="-14.8499" x2="15.2151" y2="52.2991" gradientUnits="userSpaceOnUse">
<stop stop-color="#F36D20"/>
<stop offset="1" stop-color="#F09E05"/>
</linearGradient>
<linearGradient id="paint1_linear_97_2709" x1="38.7615" y1="31.6614" x2="33.2103" y2="39.0351" gradientUnits="userSpaceOnUse">
<stop stop-color="#F9D10F"/>
<stop offset="1" stop-color="#F26321"/>
</linearGradient>
<linearGradient id="paint2_linear_97_2709" x1="38.8305" y1="31.5593" x2="34.9079" y2="34.0526" gradientUnits="userSpaceOnUse">
<stop stop-color="#F9D10F"/>
<stop offset="1" stop-color="#F26321"/>
</linearGradient>
<linearGradient id="paint3_linear_97_2709" x1="32.7182" y1="-16.3855" x2="32.7182" y2="54.779" gradientUnits="userSpaceOnUse">
<stop stop-color="#F36D20"/>
<stop offset="1" stop-color="#F09E05"/>
</linearGradient>
<linearGradient id="paint4_linear_97_2709" x1="29.3078" y1="18.7949" x2="29.3078" y2="24.7051" gradientUnits="userSpaceOnUse">
<stop stop-color="#F36D20"/>
<stop offset="1" stop-color="#F09E05"/>
</linearGradient>
</defs>
</svg>
